Coordinates
version=1
nRows=9
nColumns=63
inDegrees=yes

Units are S.I. units (second, meters, Newtons, ...)
If the header above contains a line with 'inDegrees', this indicates whether rotational values are in degrees (yes) or radians (no).

endheader
time	pelvis_tilt	pelvis_list	pelvis_rotation	pelvis_tx	pelvis_ty	pelvis_tz	hip_flexion_r	hip_adduction_r	hip_rotation_r	knee_angle_r	knee_angle_r_beta	ankle_angle_r	subtalar_angle_r	mtp_angle_r	hip_flexion_l	hip_adduction_l	hip_rotation_l	knee_angle_l	knee_angle_l_beta	ankle_angle_l	subtalar_angle_l	mtp_angle_l	L5_S1_Flex_Ext	L5_S1_Lat_Bending	L5_S1_axial_rotation	L4_L5_Flex_Ext	L4_L5_Lat_Bending	L4_L5_axial_rotation	L3_L4_Flex_Ext	L3_L4_Lat_Bending	L3_L4_axial_rotation	L2_L3_Flex_Ext	L2_L3_Lat_Bending	L2_L3_axial_rotation	L1_L2_Flex_Ext	L1_L2_Lat_Bending	L1_L2_axial_rotation	L1_T12_Flex_Ext	L1_T12_Lat_Bending	L1_T12_axial_rotation	Abs_r3	Abs_r2	Abs_r1	Abs_t1	Abs_t2	neck_flexion	neck_bending	neck_rotation	arm_flex_r	arm_add_r	arm_rot_r	elbow_flex_r	pro_sup_r	wrist_flex_r	wrist_dev_r	arm_flex_l	arm_add_l	arm_rot_l	elbow_flex_l	pro_sup_l	wrist_flex_l	wrist_dev_l
      3.89200000	    -51.90012634	     -4.19128306	      2.17406998	     -0.38019258	      1.11952450	      0.05046227	    105.87470251	     -8.05314651	     -7.08767485	     73.62226464	      1.28495092	     12.26905789	      5.31777691	      0.00000000	     98.26474920	     -6.36684115	      5.10199466	     93.88463548	      1.63859601	      8.99053923	      6.51922837	      0.00000000	     -0.08983324	      0.31971008	      0.26120491	     -0.16682932	      0.42521440	      0.27753021	     -0.14758704	      0.77734309	      0.27753021	     -0.10267041	      0.77734309	      0.22855429	     -0.08341915	      0.65195279	      0.21222899	     -0.05133072	      0.49523091	      0.19590368	     -0.64166988	      3.61662435	      1.45274333	      0.00000000	      0.00000000	      0.00000000	      0.00000000	      0.00000000	     72.84889132	    -16.54047058	     16.55541508	     36.12426203	     53.64506780	      0.00000000	      4.99975385	     70.88445029	     -8.42968356	     14.84241006	     38.11716197	     56.30814296	      0.00000000	      4.99975385
      3.90000000	    -51.94016855	     -4.33025297	      2.40508621	     -0.38008657	      1.11967088	      0.04962607	    104.41180071	     -8.19254215	     -7.44417110	     71.16324414	      1.24203292	     11.62831877	      5.53894721	      0.00000000	     99.36265875	     -5.96462196	      5.65535506	     95.92627663	      1.67422937	      9.75565731	      7.18875104	      0.00000000	     -0.08618821	      0.33966750	      0.21939114	     -0.16006012	      0.45175777	      0.23310308	     -0.14159861	      0.82586756	      0.23310308	     -0.09850450	      0.82586756	      0.19196725	     -0.08003437	      0.69264997	      0.17825530	     -0.04924794	      0.52614496	      0.16454335	     -0.61563375	      3.84238669	      1.22018769	      0.00000000	      0.00000000	      0.00000000	      0.00000000	      0.00000000	     72.96732503	    -16.55273605	     16.61111215	     36.06838118	     53.67566484	      0.00000000	      4.99976036	     70.79859143	     -8.39544660	     14.80282815	     38.20844988	     56.32485025	      0.00000000	      4.99976036
      3.90800000	    -51.92846473	     -4.33830350	      2.60374515	     -0.37968423	      1.11981986	      0.04900467	    102.90642624	     -8.23790599	     -7.66921448	     68.78137288	      1.20046142	     10.97565016	      5.76180221	      0.00000000	    100.40875276	     -5.57377384	      6.09813790	     97.89824055	      1.70864663	     10.52973712	      7.58486053	      0.00000000	     -0.08680236	      0.33929294	      0.18180601	     -0.16120067	      0.45125960	      0.19316889	     -0.14260760	      0.82495684	      0.19316889	     -0.09920642	      0.82495684	      0.15908026	     -0.08060468	      0.69188615	      0.14771738	     -0.04959887	      0.52556476	      0.13635451	     -0.62002060	      3.83814955	      1.01115049	      0.00000000	      0.00000000	      0.00000000	      0.00000000	      0.00000000	     72.93918496	    -16.50824526	     16.51481539	     35.98351237	     53.65119472	      0.00000000	      4.99976584	     70.76336563	     -8.37775457	     14.92263678	     38.24481588	     56.32365218	      0.00000000	      4.99976584
      3.91700000	    -51.90022551	     -4.43227379	      2.69366929	     -0.37912283	      1.11989694	      0.04842259	    101.33700585	     -8.20028581	     -8.06521251	     66.43847354	      1.15957011	     10.37422851	      6.05102793	      0.00000000	    101.51353067	     -5.26463587	      6.66072652	     99.84270070	      1.74258386	     11.54206081	      8.22589908	      0.00000000	     -0.08712538	      0.35280865	      0.16614088	     -0.16180054	      0.46923551	      0.17652468	     -0.14313829	      0.85781896	      0.17652468	     -0.09957560	      0.85781896	      0.14537327	     -0.08090463	      0.71944741	      0.13498946	     -0.04978344	      0.54650060	      0.12460566	     -0.62232787	      3.99104205	      0.92402573	      0.00000000	      0.00000000	      0.00000000	      0.00000000	      0.00000000	     72.93042517	    -16.46781278	     16.31632761	     35.86770902	     53.62152668	      0.00000000	      4.99977171	     70.71197465	     -8.36612485	     15.14490762	     38.22569999	     56.34834999	      0.00000000	      4.99977171
      3.92500000	    -51.86759573	     -4.48693119	      2.82127244	     -0.37851550	      1.11994676	      0.04785536	     99.77822454	     -8.16850837	     -8.40303044	     64.17281049	      1.12002683	      9.77224612	      6.32731896	      0.00000000	    102.64209279	     -4.94883169	      7.15197051	    101.67866975	      1.77462757	     12.62593578	      9.00084871	      0.00000000	     -0.08824779	      0.35977764	      0.14250734	     -0.16388496	      0.47850426	      0.15141405	     -0.14498229	      0.87476335	      0.15141405	     -0.10085839	      0.87476335	      0.12469393	     -0.08194689	      0.73365856	      0.11578722	     -0.05042478	      0.55729556	      0.10688051	     -0.63034510	      4.06987658	      0.79258310	      0.00000000	      0.00000000	      0.00000000	      0.00000000	      0.00000000	     72.90010421	    -16.43027592	     16.08215455	     35.74806421	     53.59473889	      0.00000000	      4.99977853	     70.71485572	     -8.36328152	     15.39687317	     38.16386336	     56.38598469	      0.00000000	      4.99977853
      3.93300000	    -51.82528905	     -4.48488252	      2.92627832	     -0.37776844	      1.11994588	      0.04733729	     98.23535550	     -8.06316846	     -8.60214055	     62.00294418	      1.08215552	      9.14287166	      6.55011959	      0.00000000	    103.78283425	     -4.67851624	      7.50769300	    103.41863130	      1.80499562	     13.60814885	      9.41056251	      0.00000000	     -0.08778437	      0.35932336	      0.12380990	     -0.16302434	      0.47790008	      0.13154802	     -0.14422093	      0.87365883	      0.13154802	     -0.10032875	      0.87365883	      0.10833366	     -0.08151656	      0.73273221	      0.10059554	     -0.05015999	      0.55659189	      0.09285743	     -0.62703494	      4.06473777	      0.68859353	      0.00000000	      0.00000000	      0.00000000	      0.00000000	      0.00000000	     72.81759530	    -16.38440747	     15.84475095	     35.58758980	     53.56434198	      0.00000000	      4.99978358	     70.70118366	     -8.32652727	     15.66490940	     38.05453026	     56.42330833	      0.00000000	      4.99978358
      3.94200000	    -51.77901495	     -4.49275976	      3.02277965	     -0.37702642	      1.11993856	      0.04684261	     96.71099832	     -7.94002385	     -8.81014009	     59.93324697	      1.04603249	      8.46628139	      6.72621714	      0.00000000	    104.96576887	     -4.44857164	      7.81824185	    105.06364462	      1.83370652	     14.50721565	      9.79383077	      0.00000000	     -0.08843057	      0.36008259	      0.10709591	     -0.16422441	      0.47890984	      0.11378940	     -0.14528259	      0.87550480	      0.11378940	     -0.10106730	      0.87550480	      0.09370892	     -0.08211663	      0.73428041	      0.08701543	     -0.05052923	      0.55776792	      0.08032193	     -0.63165073	      4.07332622	      0.59563531	      0.00000000	      0.00000000	      0.00000000	      0.00000000	      0.00000000	     72.73406417	    -16.37030044	     15.57776242	     35.43429995	     53.53041415	      0.00000000	      4.99978850	     70.71515380	     -8.31769554	     15.94712381	     37.91404316	     56.46410753	      0.00000000	      4.99978850
      3.95000000	    -51.73961200	     -4.25903896	      3.41603362	     -0.37627534	      1.11992460	      0.04612290	     95.29980207	     -8.09119441	     -8.69900191	     58.08617414	      1.01379499	      7.83100194	      6.77869600	      0.00000000	    106.11826810	     -4.01950766	      7.68588365	    106.50587390	      1.85887817	     15.03073802	      9.81604894	      0.00000000	     -0.08895759	      0.32606076	      0.02938166	     -0.16520314	      0.43366081	      0.03121801	     -0.14614843	      0.79278413	      0.03121801	     -0.10166963	      0.79278413	      0.02570895	     -0.08260602	      0.66490310	      0.02387260	     -0.05083037	      0.50506812	      0.02203624	     -0.63541517	      3.68846453	      0.16341196	      0.00000000	      0.00000000	      0.00000000	      0.00000000	      0.00000000	     72.55347241	    -16.36031698	     15.50531532	     35.37447461	     53.51229486	      0.00000000	      4.99979033	     70.72196269	     -8.32775121	     16.04519039	     37.81972615	     56.46641722	      0.00000000	      4.99979033
      3.95800000	    -51.67314868	     -4.46706999	      3.21592693	     -0.37548603	      1.11979658	      0.04591649	     93.76376527	     -7.62757027	     -9.03916359	     56.16710947	      0.98030099	      6.94464613	      6.78565478	      0.00000000	    107.40766757	     -4.12565798	      8.10659612	    108.05359665	      1.88589103	     15.89745686	     10.09230871	      0.00000000	     -0.08837800	      0.35320422	      0.07532151	     -0.16412679	      0.46976162	      0.08002910	     -0.14519622	      0.85878075	      0.08002910	     -0.10100722	      0.85878075	      0.06590632	     -0.08206781	      0.72025405	      0.06119872	     -0.05049919	      0.54711334	      0.05649113	     -0.63127525	      3.99551682	      0.41891562	      0.00000000	      0.00000000	      0.00000000	      0.00000000	      0.00000000	     72.48194879	    -16.39643002	     15.11234510	     35.16194320	     53.46084709	      0.00000000	      4.99979575	     70.73740602	     -8.26855996	     16.47572707	     37.61811461	     56.52980545	      0.00000000	      4.99979575
